<?xml version="1.0" encoding="utf-8"?>
<!-- Generator: Adobe Illustrator 22.0.1, SVG Export Plug-In . SVG Version: 6.00 Build 0)  -->
<svg version="1.1" id="Ebene_1" xmlns="http://www.w3.org/2000/svg" xmlns:xlink="http://www.w3.org/1999/xlink" x="0px" y="0px"
	 viewBox="0 0 211.3 208.1" style="enable-background:new 0 0 211.3 208.1;" xml:space="preserve">
<style type="text/css">
	.st0{clip-path:url(#SVGID_2_);fill:none;}
	.st1{clip-path:url(#SVGID_4_);fill:#3B2F2F;}
	.st2{clip-path:url(#SVGID_6_);}
	.st3{fill:#3B2F2F;}
</style>
<g>
	<g>
		<defs>
			<path id="SVGID_1_" d="M211.3,103.2c0,60.6-45.9,104.8-106.5,104.8C44.3,208.1,0,163.8,0,103.2C0,44.2,44.3,0,104.9,0
				C165.5,0,211.3,44.2,211.3,103.2z"/>
		</defs>
		<clipPath id="SVGID_2_">
			<use xlink:href="#SVGID_1_"  style="overflow:visible;"/>
		</clipPath>
		<path class="st0" d="M211.3,103.2c0,60.6-45.9,104.8-106.5,104.8C44.3,208.1,0,163.8,0,103.2C0,44.2,44.3,0,104.9,0
			C165.5,0,211.3,44.2,211.3,103.2z"/>
	</g>
	<g>
		<defs>
			<path id="SVGID_3_" d="M211.3,103.2c0,60.6-45.9,104.8-106.5,104.8C44.3,208.1,0,163.8,0,103.2C0,44.2,44.3,0,104.9,0
				C165.5,0,211.3,44.2,211.3,103.2z"/>
		</defs>
		<clipPath id="SVGID_4_">
			<use xlink:href="#SVGID_3_"  style="overflow:visible;"/>
		</clipPath>
		<path class="st1" d="M-22.5-5.4v238.8h73.4L2.8,185.3c-6.9-6.9-6.9-18.1,0-25l53-53c6.7-6.7,18.3-6.7,25,0l5.1,5.1l28-27.9
			c6.7-6.7,18.3-6.7,25,0l69.6,69.6c3.3,3.3,5.2,7.8,5.2,12.5s-1.8,9.2-5.2,12.5l-36.1,36.1c-0.9,2-2,3.8-3.5,5.2l-13,13h141.6V-5.4
			H-22.5z"/>
	</g>
	<g>
		<defs>
			<path id="SVGID_5_" d="M211.3,103.2c0,60.6-45.9,104.8-106.5,104.8C44.3,208.1,0,163.8,0,103.2C0,44.2,44.3,0,104.9,0
				C165.5,0,211.3,44.2,211.3,103.2z"/>
		</defs>
		<clipPath id="SVGID_6_">
			<use xlink:href="#SVGID_5_"  style="overflow:visible;"/>
		</clipPath>
		<g class="st2">
			<path class="st3" d="M206.5,180.8c0.6-0.3,0.8-0.9,0.3-1.4l-79.5-79.5c-0.5-0.5-1.3-0.5-1.8,0l-31.9,31.9
				c-0.5,0.5-0.9,0.9-0.9,0.9s-0.4,0.4-0.9,0.9l-4.9,4.9c-0.5,0.5-1.3,0.5-1.8,0l-4.9-4.8c-0.5-0.5-1.3-1.3-1.8-1.8l-9.2-9.2
				c-0.5-0.5-1.3-0.5-1.8,0L8.8,181.4c-0.5,0.5-0.5,1.3,0.1,1.7l93.6,75.1c0.5,0.4,1.4,0.4,1.9-0.1l49.8-49.7c0.5-0.5,1-1.4,1.2-2
				s0.7-1.5,1.2-2l0.1-0.1c0.5-0.5,1.3-1.3,1.8-1.8l1.1-1.1c0.5-0.5,1.4-1.1,2.1-1.4L206.5,180.8z"/>
		</g>
	</g>
</g>
</svg>
