<?xml version="1.0" encoding="utf-8"?>
<!-- Generator: Adobe Illustrator 16.0.4, SVG Export Plug-In . SVG Version: 6.00 Build 0)  -->
<!DOCTYPE svg PUBLIC "-//W3C//DTD SVG 1.1//EN" "http://www.w3.org/Graphics/SVG/1.1/DTD/svg11.dtd">
<svg version="1.1" id="Ebene_1" xmlns="http://www.w3.org/2000/svg" xmlns:xlink="http://www.w3.org/1999/xlink" x="0px" y="0px"
	 width="1280px" height="470.744px" viewBox="0 0 1280 470.744" enable-background="new 0 0 1280 470.744" xml:space="preserve">
<g>
	<path fill="#005A4B" d="M1255.687,368.103c-42.698,0-58.724-19.059-58.724-61.399v-83.88c0-1.517-0.759-2.285-2.275-2.285h-11.445
		c-2.285,0-3.811-1.527-3.811-3.812v-31.652c0-2.286,1.525-3.812,3.811-3.812h11.445c1.517,0,2.275-0.758,2.275-2.286v-49.563
		c0-2.295,1.537-3.812,3.811-3.812h45.385c2.285,0,3.811,1.517,3.811,3.812v49.563c0,1.527,0.76,2.286,2.285,2.286h23.641
		c2.285,0,3.812,1.526,3.812,3.812v31.652c0,2.285-1.526,3.812-3.812,3.812h-23.641c-1.525,0-2.285,0.768-2.285,2.285v81.606
		c0,13.72,4.571,18.3,16.766,18.3h9.16c2.285,0,3.812,1.517,3.812,3.812v37.739c0,2.295-1.526,3.822-3.812,3.822H1255.687z"/>
	<path fill="#005A4B" d="M1148.311,106.531h-45.762c-2.275,0-3.812,1.527-3.812,3.822v88.072h-0.369
		c-8.596-12.327-23.476-20.934-47.013-21.283c-15.186,27.236-38.877,48.458-68.049,60.949c-1.641,9.611-2.388,20.555-2.388,35.454
		c0,23.629,1.916,37.75,6.477,52.239c9.539,28.978,31.652,44.226,62.546,44.226c24.398,0,39.656-8.771,48.427-21.354h0.369v13.341
		c0,2.285,1.537,3.812,3.812,3.812h45.762c2.296,0,3.812-1.527,3.812-3.812V110.353
		C1152.123,108.058,1150.606,106.531,1148.311,106.531z M1095.304,305.187c-4.19,12.962-14.1,19.828-28.21,19.828
		c-14.488,0-24.408-6.866-28.599-19.828c-2.295-7.245-3.434-15.248-3.434-31.643s1.139-24.408,3.434-31.652
		c4.19-13.352,14.11-19.828,28.599-19.828c14.11,0,24.02,6.476,28.21,19.828c2.296,7.245,3.433,15.257,3.433,31.652
		S1097.6,297.942,1095.304,305.187z"/>
</g>
<g>
	<path fill="#005A4B" d="M1.149,341.349c-1.53-1.529-1.53-3.82,0-5.35L26,308.109c1.52-1.541,3.43-1.541,5.339,0
		c16.43,12.61,37.45,20.25,56.55,20.25c19.49,0,28.659-7.27,28.659-17.58c0-8.79-4.959-14.13-26.37-16.05l-20.619-2.29
		c-38.98-3.82-60.379-23.31-60.379-56.549c0-36.3,27.889-59.219,76.039-59.219c31.329,0,57.699,9.919,74.889,22.919
		c1.53,1.53,1.91,3.82,0.39,5.73l-21.399,26.37c-1.53,1.91-3.45,1.91-5.36,0.76c-12.61-8.03-30.939-14.91-50.049-14.91
		c-15.66,0-23.31,6.12-23.31,15.29c0,8.41,4.58,13.38,25.6,15.29l20.25,2.29c43.559,4.2,61.519,25.219,61.519,56.159
		c-0.379,37.83-29.799,63.44-82.528,63.44C46.619,370.009,18.729,356.639,1.149,341.349z"/>
	<path fill="#005A4B" d="M196.828,317.659c-3.81-11.09-5.73-24.839-5.73-44.319c0-19.489,1.92-33.25,5.73-44.329
		c11.09-34.39,40.889-52.339,79.859-52.339c31.72,0,56.549,14.509,69.929,34.759c1.14,1.92,1.14,3.82-0.77,5.35l-33.239,21.79
		c-2.291,1.52-4.2,1.14-5.73-0.77c-8.02-11.08-16.05-16.05-29.42-16.05c-14.14,0-24.46,6.49-28.66,19.87
		c-2.68,7.64-3.44,16.43-3.44,31.72c0,15.28,0.76,24.07,3.44,31.709c4.2,13.37,14.52,19.87,28.66,19.87
		c13.37,0,21.4-4.97,29.42-16.05c1.53-1.91,3.439-2.3,5.73-0.76l33.239,21.769c1.91,1.541,1.91,3.451,0.77,5.361
		c-13.38,20.25-38.209,34.77-69.929,34.77C237.717,370.009,207.918,352.039,196.828,317.659z"/>
	<path fill="#005A4B" d="M490.059,365.798c-2.29,0-3.82-1.53-3.82-3.82V255.76c0-20.25-9.561-33.62-28.66-33.62
		c-18.34,0-29.04,13.37-29.04,33.62v106.218c0,2.29-1.53,3.82-3.82,3.82h-45.85c-2.29,0-3.83-1.53-3.83-3.82V109.802
		c0-2.3,1.54-3.831,3.83-3.831h45.85c2.29,0,3.82,1.53,3.82,3.831v87.879h0.39c8.399-11.46,24.06-21.01,47.749-21.01
		c40.89,0,63.049,28.27,63.049,68.769v116.539c0,2.29-1.52,3.82-3.82,3.82H490.059z"/>
	<path fill="#005A4B" d="M790.805,176.743c-0.667-0.01-1.294-0.072-1.971-0.072c-25.979,0-44.33,8.779-58.08,23.299h-0.379
		c-10.711-15.29-27.131-23.299-49.68-23.299c-23.69,0-39.36,9.55-47.76,21.01h-0.38v-13c0-2.291-1.54-3.82-3.83-3.82h-45.849
		c-2.291,0-3.82,1.529-3.82,3.82v177.297c0,2.29,1.529,3.82,3.82,3.82h45.849c2.29,0,3.83-1.53,3.83-3.82V255.76
		c0-20.25,10.69-33.62,29.041-33.62c19.1,0,28.648,13.37,28.648,33.62v106.218c0,2.29,1.531,3.82,3.82,3.82h45.859
		c2.29,0,3.82-1.53,3.82-3.82V255.76c0-20.25,10.319-33.62,28.66-33.62c19.1,0,29.029,13.37,29.029,33.62v106.218
		c0,2.29,1.529,3.82,3.83,3.82h45.85c2.289,0,3.82-1.53,3.82-3.82V245.44c0-3.091-0.175-6.068-0.433-8.995
		C827.094,223.763,805.068,203.041,790.805,176.743z"/>
</g>
<path fill="#3B2F2F" d="M920.282,250.421c-8.8,0-17.344-0.699-25.6-1.972v113.53c0,2.29,1.53,3.82,3.82,3.82h45.849
	c2.3,0,3.83-1.53,3.83-3.82V248.079C939.177,249.599,929.862,250.421,920.282,250.421z"/>
<g>
	<path fill="#3B2F2F" d="M0.01,439.948c0-9.703,0.359-13.144,1.633-16.943c3.163-9.786,11.141-14.858,22.016-14.858
		c11.5,0,18.925,6.161,21.461,13.041c0.195,0.452,0.092,1.006-0.36,1.273l-7.608,3.348c-0.544,0.185-0.996-0.082-1.181-0.452
		c-2.711-4.888-6.428-7.609-12.415-7.609c-6.244,0-9.868,3.08-11.593,8.061c-0.719,2.259-1.088,5.35-1.088,14.14
		c0,8.698,0.37,11.86,1.088,14.13c1.725,4.979,5.35,8.06,11.593,8.06c5.442,0,10.063-2.71,11.696-7.701
		c0.626-1.9,0.996-4.436,0.996-7.969c0-0.37-0.185-0.554-0.534-0.554H25.548c-0.534,0-0.904-0.349-0.904-0.903v-7.24
		c0-0.544,0.37-0.914,0.904-0.914h20.393c0.544,0,0.904,0.37,0.904,0.914v5.35c0,5.062-0.452,10.413-1.448,13.493
		c-2.998,9.602-11.141,15.125-21.738,15.125c-10.875,0-18.853-5.072-22.016-14.858C0.369,453.082,0.01,449.631,0.01,439.948z"/>
	<path fill="#3B2F2F" d="M76.963,410.046c0.164-0.544,0.534-0.914,1.16-0.914h8.338c0.637,0,1.007,0.37,1.181,0.914l20.835,59.794
		c0.185,0.534,0,0.904-0.637,0.904h-8.882c-0.626,0-0.986-0.267-1.171-0.904l-4.076-11.953H70.514l-4.066,11.953
		c-0.185,0.637-0.544,0.904-1.181,0.904h-8.8c-0.627,0-0.812-0.37-0.627-0.904L76.963,410.046z M90.445,448.358l-8.153-23.905
		h-0.267l-8.256,23.905H90.445z"/>
	<path fill="#3B2F2F" d="M156.431,470.744c-0.729,0-1.078-0.267-1.365-0.904l-11.768-24.008H132.69
		c-0.359,0-0.534,0.185-0.534,0.544v23.464c0,0.534-0.37,0.904-0.903,0.904h-8.893c-0.544,0-0.893-0.37-0.893-0.904v-59.794
		c0-0.544,0.349-0.914,0.893-0.914h23.833c11.327,0,19.665,7.526,19.665,18.401c0,8.061-4.631,14.314-11.696,16.943l12.959,25.097
		c0.359,0.626,0,1.17-0.626,1.17H156.431z M155.25,427.533c0-5.34-3.8-8.79-9.416-8.79H132.69c-0.359,0-0.534,0.185-0.534,0.544
		v16.399c0,0.359,0.175,0.544,0.534,0.544h13.145C151.451,436.23,155.25,432.791,155.25,427.533z"/>
	<path fill="#3B2F2F" d="M195.513,470.744c-0.543,0-0.913-0.37-0.913-0.904v-50.552c0-0.359-0.175-0.544-0.544-0.544h-16.122
		c-0.544,0-0.914-0.359-0.914-0.903v-7.794c0-0.544,0.37-0.914,0.914-0.914h44.032c0.535,0,0.904,0.37,0.904,0.914v7.794
		c0,0.544-0.369,0.903-0.904,0.903h-16.142c-0.349,0-0.534,0.185-0.534,0.544v50.552c0,0.534-0.359,0.904-0.903,0.904H195.513z"/>
	<path fill="#3B2F2F" d="M236.208,410.046c0-0.544,0.359-0.914,0.904-0.914h38.6c0.544,0,0.894,0.37,0.894,0.914v7.794
		c0,0.544-0.349,0.903-0.894,0.903h-28.259c-0.38,0-0.544,0.185-0.544,0.544v15.043c0,0.359,0.164,0.534,0.544,0.534h23.813
		c0.534,0,0.913,0.37,0.913,0.914v7.793c0,0.534-0.379,0.904-0.913,0.904h-23.813c-0.38,0-0.544,0.174-0.544,0.534v15.587
		c0,0.36,0.164,0.544,0.544,0.544h28.259c0.544,0,0.894,0.359,0.894,0.903v7.794c0,0.534-0.349,0.904-0.894,0.904h-38.6
		c-0.544,0-0.904-0.37-0.904-0.904V410.046z"/>
	<path fill="#3B2F2F" d="M292.398,410.046c0-0.544,0.37-0.914,0.914-0.914h8.328c0.729,0,1.181,0.287,1.541,0.914l25.096,42.491
		h0.359v-42.491c0-0.544,0.37-0.914,0.914-0.914h7.876c0.534,0,0.903,0.37,0.903,0.914v59.794c0,0.534-0.369,0.904-0.903,0.904
		h-8.246c-0.708,0-1.17-0.267-1.53-0.904l-25.188-42.399h-0.359v42.399c0,0.534-0.36,0.904-0.904,0.904h-7.886
		c-0.544,0-0.914-0.37-0.914-0.904V410.046z"/>
	<path fill="#3B2F2F" d="M392.999,436.405c-4.979-6.428-6.89-9.601-6.89-14.129c0-8.246,6.808-14.129,15.32-14.129
		c9.067,0,15.044,6.53,15.044,13.862c0,5.606-2.721,9.601-10.7,15.762l9.611,12.312l6.151-7.332c0.37-0.452,0.822-0.452,1.273-0.092
		l4.98,4.261c0.462,0.359,0.544,0.812,0.185,1.263l-7.26,8.79l2.177,2.721c1.099,1.448,2.269,1.992,3.728,1.992h1.355
		c0.544,0,0.914,0.359,0.914,0.904v7.25c0,0.534-0.37,0.904-0.914,0.904h-2.978c-4.087,0-5.987-1.006-8.975-4.806l-1.54-1.899
		c-5.176,5.35-9.786,7.701-16.04,7.701c-11.316,0-17.128-6.972-17.128-16.481C381.313,448.728,384.312,443.204,392.999,436.405z
		 M399.171,462.95c3.348,0,5.966-1.355,10.053-5.699l-10.875-13.965c-5.894,4.539-7.609,8.071-7.609,11.419
		C390.741,459.602,393.914,462.95,399.171,462.95z M407.231,421.917c0-2.988-2.454-5.433-5.709-5.433
		c-3.439,0-5.883,2.352-5.883,5.525c0,2.177,0.718,3.533,4.795,8.872C406.144,426.445,407.231,424.535,407.231,421.917z"/>
	<path fill="#3B2F2F" d="M471.411,410.046c0-0.544,0.359-0.914,0.903-0.914h8.882c0.544,0,0.903,0.37,0.903,0.914v50.552
		c0,0.36,0.186,0.544,0.544,0.544h28.259c0.555,0,0.904,0.359,0.904,0.903v7.794c0,0.534-0.35,0.904-0.904,0.904h-38.589
		c-0.544,0-0.903-0.37-0.903-0.904V410.046z"/>
	<path fill="#3B2F2F" d="M541.289,410.046c0.174-0.544,0.534-0.914,1.17-0.914h8.328c0.637,0,1.006,0.37,1.191,0.914l20.825,59.794
		c0.185,0.534,0,0.904-0.626,0.904h-8.872c-0.647,0-1.006-0.267-1.191-0.904l-4.066-11.953H534.85l-4.066,11.953
		c-0.185,0.637-0.565,0.904-1.191,0.904h-8.79c-0.637,0-0.811-0.37-0.637-0.904L541.289,410.046z M554.781,448.358l-8.153-23.905
		h-0.277l-8.246,23.905H554.781z"/>
	<path fill="#3B2F2F" d="M585.803,410.046c0-0.544,0.359-0.914,0.894-0.914h8.338c0.729,0,1.181,0.287,1.541,0.914l25.096,42.491
		h0.37v-42.491c0-0.544,0.349-0.914,0.903-0.914h7.886c0.534,0,0.894,0.37,0.894,0.914v59.794c0,0.534-0.36,0.904-0.894,0.904
		h-8.256c-0.729,0-1.181-0.267-1.541-0.904l-25.178-42.399h-0.37v42.399c0,0.534-0.359,0.904-0.903,0.904h-7.886
		c-0.534,0-0.894-0.37-0.894-0.904V410.046z"/>
	<path fill="#3B2F2F" d="M649.869,410.046c0-0.544,0.358-0.914,0.913-0.914h22.016c10.598,0,17.662,4.723,20.559,13.688
		c0.996,3.08,1.54,6.438,1.54,17.127c0,10.69-0.544,14.037-1.54,17.118c-2.896,8.975-9.961,13.678-20.559,13.678h-22.016
		c-0.555,0-0.913-0.37-0.913-0.904V410.046z M661.113,461.143h9.148c6.788,0,10.957-2.27,12.765-7.794
		c0.636-1.725,1.088-4.528,1.088-13.4c0-8.975-0.452-11.696-1.088-13.421c-1.808-5.524-5.977-7.784-12.765-7.784h-9.148
		c-0.37,0-0.556,0.185-0.556,0.544v41.311C660.558,460.958,660.743,461.143,661.113,461.143z"/>
	<path fill="#3B2F2F" d="M707.794,463.586c-0.359-0.359-0.544-0.903-0.186-1.365l5.628-6.51c0.359-0.452,0.903-0.452,1.273-0.103
		c3.974,3.184,9.868,6.531,16.748,6.531c7.342,0,11.604-3.717,11.604-8.872c0-4.447-2.722-7.353-11.234-8.523l-3.266-0.452
		c-11.859-1.632-18.576-7.342-18.576-17.58c0-11.142,8.153-18.565,20.846-18.565c7.691,0,15.033,2.443,19.922,6.161
		c0.451,0.37,0.554,0.719,0.185,1.263l-4.344,6.706c-0.359,0.452-0.812,0.544-1.273,0.277c-4.98-3.266-9.601-4.806-14.766-4.806
		c-6.244,0-9.694,3.439-9.694,8.245c0,4.252,2.988,7.158,11.326,8.338l3.256,0.452c11.87,1.623,18.391,7.25,18.391,17.847
		c0,10.956-7.876,19.109-23.187,19.109C721.389,471.739,712.6,468.115,707.794,463.586z"/>
	<path fill="#3B2F2F" d="M766.982,439.948c0-9.786,0.358-12.866,1.622-16.676c3.184-10.053,10.967-15.125,21.379-15.125
		c9.879,0,17.313,5.072,20.846,13.226c0.175,0.452,0,0.904-0.452,1.088l-7.712,3.718c-0.533,0.267-0.995,0-1.17-0.452
		c-1.992-4.354-5.433-7.979-11.512-7.979c-5.884,0-9.323,3.172-11.049,8.153c-0.812,2.536-1.088,4.98-1.088,14.047
		c0,9.047,0.276,11.501,1.088,14.037c1.726,4.991,5.165,8.153,11.049,8.153c6.079,0,9.52-3.625,11.512-7.968
		c0.175-0.452,0.637-0.729,1.17-0.452l7.712,3.707c0.452,0.185,0.627,0.637,0.452,1.088c-3.532,8.154-10.967,13.226-20.846,13.226
		c-10.412,0-18.195-5.072-21.379-15.125C767.341,452.814,766.982,449.724,766.982,439.948z"/>
	<path fill="#3B2F2F" d="M825.441,410.046c0-0.544,0.359-0.914,0.903-0.914h8.882c0.545,0,0.895,0.37,0.895,0.914v24.285
		c0,0.359,0.185,0.534,0.554,0.534h23.464c0.359,0,0.544-0.175,0.544-0.534v-24.285c0-0.544,0.359-0.914,0.904-0.914h8.882
		c0.534,0,0.903,0.37,0.903,0.914v59.794c0,0.534-0.369,0.904-0.903,0.904h-8.882c-0.545,0-0.904-0.37-0.904-0.904v-24.829
		c0-0.36-0.185-0.534-0.544-0.534h-23.464c-0.369,0-0.554,0.174-0.554,0.534v24.829c0,0.534-0.35,0.904-0.895,0.904h-8.882
		c-0.544,0-0.903-0.37-0.903-0.904V410.046z"/>
	<path fill="#3B2F2F" d="M905.464,410.046c0.186-0.544,0.545-0.914,1.172-0.914h8.337c0.637,0,0.997,0.37,1.182,0.914l20.835,59.794
		c0.185,0.534,0,0.904-0.637,0.904h-8.872c-0.637,0-0.996-0.267-1.181-0.904l-4.077-11.953h-23.187l-4.077,11.953
		c-0.185,0.637-0.554,0.904-1.181,0.904h-8.789c-0.627,0-0.812-0.37-0.627-0.904L905.464,410.046z M918.967,448.358l-8.162-23.905
		h-0.277l-8.235,23.905H918.967z"/>
	<path fill="#3B2F2F" d="M949.969,410.046c0-0.544,0.369-0.914,0.914-0.914h38.599c0.545,0,0.904,0.37,0.904,0.914v7.794
		c0,0.544-0.359,0.903-0.904,0.903h-28.269c-0.359,0-0.544,0.185-0.544,0.544v15.67c0,0.36,0.185,0.544,0.544,0.544h23.823
		c0.544,0,0.903,0.359,0.903,0.903v7.794c0,0.544-0.359,0.914-0.903,0.914h-23.823c-0.359,0-0.544,0.174-0.544,0.534v24.192
		c0,0.534-0.36,0.904-0.904,0.904h-8.882c-0.545,0-0.914-0.37-0.914-0.904V410.046z"/>
	<path fill="#3B2F2F" d="M1019.035,470.744c-0.544,0-0.904-0.37-0.904-0.904v-50.552c0-0.359-0.185-0.544-0.544-0.544h-16.132
		c-0.533,0-0.904-0.359-0.904-0.903v-7.794c0-0.544,0.371-0.914,0.904-0.914h44.032c0.544,0,0.903,0.37,0.903,0.914v7.794
		c0,0.544-0.359,0.903-0.903,0.903h-16.132c-0.359,0-0.545,0.185-0.545,0.544v50.552c0,0.534-0.349,0.904-0.903,0.904H1019.035z"/>
	<path fill="#3B2F2F" d="M1056.475,463.586c-0.35-0.359-0.533-0.903-0.185-1.365l5.627-6.51c0.369-0.452,0.894-0.452,1.273-0.103
		c3.974,3.184,9.857,6.531,16.747,6.531c7.343,0,11.594-3.717,11.594-8.872c0-4.447-2.711-7.353-11.223-8.523l-3.267-0.452
		c-11.859-1.632-18.575-7.342-18.575-17.58c0-11.142,8.163-18.565,20.845-18.565c7.691,0,15.034,2.443,19.932,6.161
		c0.442,0.37,0.534,0.719,0.175,1.263l-4.354,6.706c-0.349,0.452-0.801,0.544-1.253,0.277c-4.99-3.266-9.61-4.806-14.775-4.806
		c-6.244,0-9.693,3.439-9.693,8.245c0,4.252,2.997,7.158,11.326,8.338l3.265,0.452c11.86,1.623,18.391,7.25,18.391,17.847
		c0,10.956-7.886,19.109-23.196,19.109C1070.06,471.739,1061.28,468.115,1056.475,463.586z"/>
	<path fill="#3B2F2F" d="M1117.48,410.046c0-0.544,0.35-0.914,0.902-0.914h22.91c13.041,0,19.212,6.53,19.212,16.409
		c0,6.972-3.265,10.956-7.167,13.041v0.186c3.811,1.448,8.246,6.346,8.246,13.862c0,12.22-7.702,18.114-21.194,18.114h-22.007
		c-0.553,0-0.902-0.37-0.902-0.904V410.046z M1141.026,434.783c5.442,0,8.779-3.265,8.779-8.071c0-4.888-3.337-8.153-8.779-8.153
		h-12.323c-0.369,0-0.543,0.185-0.543,0.544v15.125c0,0.37,0.174,0.554,0.543,0.554H1141.026z M1128.703,461.317h12.877
		c5.967,0,9.324-3.43,9.324-8.605c0-5.073-3.357-8.513-9.324-8.513h-12.877c-0.369,0-0.543,0.175-0.543,0.544v16.04
		C1128.16,461.143,1128.334,461.317,1128.703,461.317z"/>
	<path fill="#3B2F2F" d="M1192.328,410.046c0.186-0.544,0.555-0.914,1.182-0.914h8.338c0.637,0,0.996,0.37,1.181,0.914
		l20.824,59.794c0.185,0.534,0,0.904-0.626,0.904h-8.873c-0.646,0-1.006-0.267-1.18-0.904l-4.076-11.953H1185.9l-4.077,11.953
		c-0.175,0.637-0.544,0.904-1.181,0.904h-8.779c-0.637,0-0.822-0.37-0.637-0.904L1192.328,410.046z M1205.831,448.358l-8.143-23.905
		h-0.277l-8.246,23.905H1205.831z"/>
	<path fill="#3B2F2F" d="M1269.445,448.912v-38.866c0-0.544,0.37-0.914,0.924-0.914h8.872c0.534,0,0.904,0.37,0.904,0.914v39.052
		c0,14.314-9.693,22.642-22.746,22.642c-12.948,0-22.642-8.328-22.642-22.642v-39.052c0-0.544,0.359-0.914,0.904-0.914h8.882
		c0.544,0,0.903,0.37,0.903,0.914v38.866c0,8.513,4.98,13.226,11.952,13.226C1264.465,462.138,1269.445,457.425,1269.445,448.912z"
		/>
</g>
<g>
	<defs>
		<path id="SVGID_1_" d="M1027.105,103.23c0,60.606-45.869,104.843-106.484,104.843c-60.605,0-104.863-44.237-104.863-104.843
			C815.758,44.247,860.016,0,920.621,0C981.236,0,1027.105,44.247,1027.105,103.23z"/>
	</defs>
	<clipPath id="SVGID_2_">
		<use xlink:href="#SVGID_1_"  overflow="visible"/>
	</clipPath>
	<path clip-path="url(#SVGID_2_)" fill="none" d="M1027.105,103.23c0,60.606-45.869,104.843-106.484,104.843
		c-60.605,0-104.863-44.237-104.863-104.843C815.758,44.247,860.016,0,920.621,0C981.236,0,1027.105,44.247,1027.105,103.23z"/>
	<path clip-path="url(#SVGID_2_)" fill="#005A4B" d="M793.301-5.371v238.807h73.39l-48.119-48.118c-6.9-6.88-6.9-18.094,0-24.994
		l53.027-53.027c6.664-6.674,18.329-6.674,25.004,0l5.145,5.145l27.951-27.94c6.664-6.654,18.329-6.654,24.994,0l69.61,69.621
		c3.337,3.328,5.165,7.773,5.165,12.497s-1.828,9.17-5.165,12.497l-36.053,36.063c-0.863,2.012-2.033,3.769-3.512,5.247
		l-13.021,13.01h141.604V-5.371H793.301z"/>
	<g clip-path="url(#SVGID_2_)">
		<path fill="#005A4B" d="M1022.296,180.802c0.646-0.273,0.769-0.902,0.272-1.398l-79.471-79.482c-0.496-0.496-1.309-0.496-1.805,0
			l-31.888,31.888c-0.496,0.496-0.902,0.899-0.902,0.896s-0.405,0.401-0.901,0.897l-4.901,4.91c-0.496,0.497-1.311,0.5-1.811,0.008
			l-4.907-4.833c-0.5-0.492-1.314-1.301-1.811-1.797l-9.165-9.172c-0.496-0.496-1.308-0.497-1.804,0l-58.656,58.658
			c-0.496,0.496-0.455,1.261,0.093,1.7l93.559,75.068c0.548,0.439,1.401,0.393,1.897-0.104l49.755-49.745
			c0.496-0.496,1.031-1.401,1.189-2.011s0.683-1.524,1.167-2.032l0.119-0.125c0.484-0.508,1.286-1.329,1.782-1.825l1.092-1.091
			c0.496-0.496,1.431-1.125,2.077-1.398L1022.296,180.802z"/>
	</g>
</g>
</svg>
